<?xml version="1.0" encoding="UTF-8" standalone="no"?>
<!-- Created with Inkscape (http://www.inkscape.org/) -->

<svg
   xmlns:dc="http://purl.org/dc/elements/1.1/"
   xmlns:cc="http://creativecommons.org/ns#"
   xmlns:rdf="http://www.w3.org/1999/02/22-rdf-syntax-ns#"
   xmlns:svg="http://www.w3.org/2000/svg"
   xmlns="http://www.w3.org/2000/svg"
   xmlns:sodipodi="http://sodipodi.sourceforge.net/DTD/sodipodi-0.dtd"
   xmlns:inkscape="http://www.inkscape.org/namespaces/inkscape"
   width="744.09448819"
   height="1052.3622047"
   id="svg2"
   version="1.1"
   inkscape:version="0.48.2 r9819"
   sodipodi:docname="layouticons.svg">
  <defs
     id="defs4" />
  <sodipodi:namedview
     id="base"
     pagecolor="#ffffff"
     bordercolor="#666666"
     borderopacity="1.0"
     inkscape:pageopacity="0.0"
     inkscape:pageshadow="2"
     inkscape:zoom="0.98994949"
     inkscape:cx="312.2208"
     inkscape:cy="352.08407"
     inkscape:document-units="px"
     inkscape:current-layer="layer1"
     showgrid="false"
     inkscape:window-width="1436"
     inkscape:window-height="856"
     inkscape:window-x="4"
     inkscape:window-y="0"
     inkscape:window-maximized="1" />
  <metadata
     id="metadata7">
    <rdf:RDF>
      <cc:Work
         rdf:about="">
        <dc:format>image/svg+xml</dc:format>
        <dc:type
           rdf:resource="http://purl.org/dc/dcmitype/StillImage" />
        <dc:title></dc:title>
      </cc:Work>
    </rdf:RDF>
  </metadata>
  <g
     inkscape:label="Layer 1"
     inkscape:groupmode="layer"
     id="layer1">
    <rect
       style="fill:#438eb9;fill-opacity:1;stroke:#438eb9;stroke-width:20;stroke-linecap:round;stroke-linejoin:round;stroke-miterlimit:4;stroke-opacity:1;stroke-dasharray:none"
       id="rect3810"
       width="124.75384"
       height="141.92644"
       x="63.63961"
       y="505.86966"
       rx="24.107143"
       ry="21.785706" />
    <rect
       style="fill:#ffffff;fill-opacity:1;stroke:#438eb9;stroke-width:21.65020561;stroke-linecap:round;stroke-linejoin:round;stroke-miterlimit:4;stroke-opacity:1;stroke-dasharray:none"
       id="rect3812"
       width="105.93105"
       height="124.61886"
       x="71.030701"
       y="515.28101"
       rx="26.333633"
       ry="23.37064" />
    <text
       xml:space="preserve"
       style="font-size:10px;font-style:normal;font-weight:normal;line-height:125%;letter-spacing:0px;word-spacing:0px;fill:#000000;fill-opacity:1;stroke:none;font-family:robota;-inkscape-font-specification:robota"
       x="125.25892"
       y="560.92291"
       id="text3814"
       sodipodi:linespacing="125%"><tspan
         sodipodi:role="line"
         id="tspan3816"
         x="125.25892"
         y="560.92291">baifj</tspan></text>
    <text
       sodipodi:linespacing="125%"
       id="text3830"
       y="549.30621"
       x="126.26907"
       style="font-size:10px;font-style:normal;font-weight:normal;line-height:125%;letter-spacing:0px;word-spacing:0px;fill:#000000;fill-opacity:1;stroke:none;font-family:robota;-inkscape-font-specification:robota"
       xml:space="preserve"><tspan
         y="549.30621"
         x="126.26907"
         id="tspan3832"
         sodipodi:role="line">badsifj</tspan></text>
    <text
       xml:space="preserve"
       style="font-size:10px;font-style:normal;font-weight:normal;line-height:125%;letter-spacing:0px;word-spacing:0px;fill:#000000;fill-opacity:1;stroke:none;font-family:robota;-inkscape-font-specification:robota"
       x="91.923882"
       y="560.92291"
       id="text3834"
       sodipodi:linespacing="125%"><tspan
         sodipodi:role="line"
         id="tspan3836"
         x="91.923882"
         y="560.92291">badsifj</tspan></text>
    <text
       sodipodi:linespacing="125%"
       id="text3838"
       y="548.80109"
       x="90.913734"
       style="font-size:10px;font-style:normal;font-weight:normal;line-height:125%;letter-spacing:0px;word-spacing:0px;fill:#000000;fill-opacity:1;stroke:none;font-family:robota;-inkscape-font-specification:robota"
       xml:space="preserve"><tspan
         y="548.80109"
         x="90.913734"
         id="tspan3840"
         sodipodi:role="line">badsifj</tspan></text>
    <text
       sodipodi:linespacing="125%"
       id="text3842"
       y="588.70209"
       x="92.934036"
       style="font-size:10px;font-style:normal;font-weight:normal;line-height:125%;letter-spacing:0px;word-spacing:0px;fill:#000000;fill-opacity:1;stroke:none;font-family:robota;-inkscape-font-specification:robota"
       xml:space="preserve"><tspan
         y="588.70209"
         x="92.934036"
         id="tspan3844"
         sodipodi:role="line">badsifj</tspan></text>
    <text
       xml:space="preserve"
       style="font-size:10px;font-style:normal;font-weight:normal;line-height:125%;letter-spacing:0px;word-spacing:0px;fill:#000000;fill-opacity:1;stroke:none;font-family:robota;-inkscape-font-specification:robota"
       x="126.26907"
       y="587.69196"
       id="text3846"
       sodipodi:linespacing="125%"><tspan
         sodipodi:role="line"
         id="tspan3848"
         x="126.26907"
         y="587.69196">badsifj</tspan></text>
    <text
       sodipodi:linespacing="125%"
       id="text3850"
       y="574.56"
       x="92.428963"
       style="font-size:10px;font-style:normal;font-weight:normal;line-height:125%;letter-spacing:0px;word-spacing:0px;fill:#438eb9;fill-opacity:1;stroke:none;font-family:robota;-inkscape-font-specification:robota"
       xml:space="preserve"><tspan
         y="574.56"
         x="92.428963"
         id="tspan3852"
         sodipodi:role="line">badsifj</tspan></text>
    <text
       sodipodi:linespacing="125%"
       id="text3854"
       y="604.3595"
       x="126.26907"
       style="font-size:10px;font-style:normal;font-weight:normal;line-height:125%;letter-spacing:0px;word-spacing:0px;fill:#000000;fill-opacity:1;stroke:none;font-family:robota;-inkscape-font-specification:robota"
       xml:space="preserve"><tspan
         y="604.3595"
         x="126.26907"
         id="tspan3856"
         sodipodi:role="line">badsifj</tspan></text>
    <text
       xml:space="preserve"
       style="font-size:10px;font-style:normal;font-weight:normal;line-height:125%;letter-spacing:0px;word-spacing:0px;fill:#000000;fill-opacity:1;stroke:none;font-family:robota;-inkscape-font-specification:robota"
       x="91.418808"
       y="603.85437"
       id="text3858"
       sodipodi:linespacing="125%"><tspan
         sodipodi:role="line"
         id="tspan3860"
         x="91.418808"
         y="603.85437">badsifj</tspan></text>
    <g
       id="g3876"
       style="stroke:#069c50;stroke-opacity:1">
      <path
         style="fill:none;stroke:#069c50;stroke-width:1.34971653999999996;stroke-linecap:round;stroke-linejoin:round;stroke-miterlimit:4;stroke-opacity:1;stroke-dasharray:none"
         d="m 132.78209,574.45025 -1.04673,0.8702 c -1.26332,1.05027 -3.10234,1.21245 -4.12336,0.36363 -1.02101,-0.84883 -0.82594,-2.37771 0.43739,-3.42798 l 2.09346,-1.74041 c 0.49083,-0.40804 1.06855,-0.68204 1.65145,-0.81478 0.0151,-0.003 0.0302,-0.007 0.0452,-0.01 0.90265,-0.19415 1.81261,-0.0493 2.42669,0.46117"
         id="path3866"
         inkscape:connector-curvature="0"
         sodipodi:nodetypes="cssssssc"
         inkscape:export-filename="/Users/elise/Documents/ReadMore/readmore/main/static/img/layout/link.png"
         inkscape:export-xdpi="19.870001"
         inkscape:export-ydpi="19.870001" />
      <path
         inkscape:export-ydpi="19.870001"
         inkscape:export-xdpi="19.870001"
         inkscape:export-filename="/Users/elise/Documents/ReadMore/readmore/main/static/img/layout/link.png"
         sodipodi:nodetypes="cssssssc"
         inkscape:connector-curvature="0"
         id="path3868"
         d="m 133.32042,568.09156 1.04673,-0.87021 c 1.26333,-1.05027 3.10235,-1.21244 4.12336,-0.36362 1.02102,0.84882 0.82594,2.3777 -0.43739,3.42797 l -2.09346,1.74041 c -0.49082,0.40805 -1.06856,0.68205 -1.65144,0.81478 -0.0151,0.003 -0.0302,0.007 -0.0452,0.01 -0.90265,0.19416 -1.81262,0.0493 -2.42669,-0.46116"
         style="fill:none;stroke:#069c50;stroke-width:1.34971653999999996;stroke-linecap:round;stroke-linejoin:round;stroke-miterlimit:4;stroke-opacity:1;stroke-dasharray:none" />
    </g>
    <text
       sodipodi:linespacing="125%"
       id="text3870"
       y="573.04474"
       x="139.90613"
       style="font-size:10px;font-style:normal;font-weight:normal;line-height:125%;letter-spacing:0px;word-spacing:0px;fill:#000000;fill-opacity:1;stroke:none;font-family:robota;-inkscape-font-specification:robota"
       xml:space="preserve"><tspan
         y="573.04474"
         x="139.90613"
         id="tspan3872"
         sodipodi:role="line">baifj</tspan></text>
    <rect
       style="fill:none;stroke:#069c50;stroke-width:0.61421108000000002;stroke-linecap:round;stroke-linejoin:round;stroke-miterlimit:4;stroke-opacity:1;stroke-dasharray:none"
       id="rect3874"
       width="36.751282"
       height="14.022848"
       x="90.215759"
       y="563.76056"
       rx="0"
       ry="0" />
    <path
       style="fill:#438eb9;fill-opacity:1;stroke:none"
       d="m 320.5357,383.79074 101.78571,0 c 13.35536,0 24.10715,9.71643 24.10715,21.78571 l 0,106.42859 c 0,12.06928 -10.75179,21.7857 -24.10715,21.7857 l -101.78571,0 c -13.35536,0 -24.10714,-9.71642 -24.10714,-21.7857 l 0,-106.42859 c 0,-12.06928 10.75178,-21.78571 24.10714,-21.78571 z"
       id="rect3880"
       inkscape:export-filename="/Users/elise/Documents/ReadMore/readmore/main/static/img/layout/link.png"
       inkscape:export-xdpi="9"
       inkscape:export-ydpi="9" />
    <path
       style="fill:none;stroke:#ffffff;stroke-width:10;stroke-linecap:round;stroke-linejoin:round;stroke-miterlimit:4;stroke-opacity:1;stroke-dasharray:none"
       d="m 369.61024,484.62536 -7.07108,7.07107 c -8.53427,8.53427 -20.95756,9.85207 -27.85491,2.95473 -6.89734,-6.89735 -5.57954,-19.32064 2.95473,-27.85491 l 14.14215,-14.14215 c 3.31574,-3.31573 7.21852,-5.54216 11.15618,-6.6207 0.10182,-0.0279 0.20366,-0.055 0.30552,-0.0814 6.09777,-1.57764 12.24492,-0.40095 16.39321,3.74734"
       id="rect3774"
       inkscape:connector-curvature="0"
       sodipodi:nodetypes="cssssssc"
       inkscape:export-filename="/Users/elise/Documents/ReadMore/readmore/main/static/img/layout/link.png"
       inkscape:export-xdpi="9"
       inkscape:export-ydpi="9" />
    <path
       inkscape:export-ydpi="9"
       inkscape:export-xdpi="9"
       inkscape:export-filename="/Users/elise/Documents/ReadMore/readmore/main/static/img/layout/link.png"
       sodipodi:nodetypes="cssssssc"
       inkscape:connector-curvature="0"
       id="path3806"
       d="m 373.24687,432.95613 7.07108,-7.07107 c 8.53427,-8.53427 20.95756,-9.85207 27.85491,-2.95473 6.89734,6.89735 5.57954,19.32064 -2.95473,27.85491 l -14.14215,14.14215 c -3.31574,3.31573 -7.21852,5.54216 -11.15618,6.6207 -0.10182,0.0279 -0.20366,0.055 -0.30552,0.0814 -6.09777,1.57764 -12.24492,0.40095 -16.39321,-3.74734"
       style="fill:none;stroke:#ffffff;stroke-width:10;stroke-linecap:round;stroke-linejoin:round;stroke-miterlimit:4;stroke-opacity:1;stroke-dasharray:none" />
    <g
       transform="translate(-241.88162,-80.093481)"
       id="g3886"
       style="stroke:#000000;stroke-opacity:1">
      <path
         style="fill:none;stroke:#000000;stroke-width:10;stroke-linecap:round;stroke-linejoin:round;stroke-miterlimit:4;stroke-opacity:1;stroke-dasharray:none"
         d="m 372.20615,482.57598 -7.07108,7.07107 c -8.53427,8.53427 -20.95756,9.85207 -27.85491,2.95473 -6.89734,-6.89735 -5.57954,-19.32064 2.95473,-27.85491 l 14.14215,-14.14215 c 3.31574,-3.31573 7.21852,-5.54216 11.15618,-6.6207 0.10182,-0.0279 0.20366,-0.055 0.30552,-0.0814 6.09777,-1.57764 12.24492,-0.40095 16.39321,3.74734"
         id="path3888"
         inkscape:connector-curvature="0"
         sodipodi:nodetypes="cssssssc"
         inkscape:export-filename="/Users/elise/Documents/ReadMore/readmore/main/static/img/layout/link.png"
         inkscape:export-xdpi="14.9"
         inkscape:export-ydpi="14.9" />
      <path
         inkscape:export-ydpi="14.9"
         inkscape:export-xdpi="14.9"
         inkscape:export-filename="/Users/elise/Documents/ReadMore/readmore/main/static/img/layout/link.png"
         sodipodi:nodetypes="cssssssc"
         inkscape:connector-curvature="0"
         id="path3890"
         d="m 375.84278,430.90675 7.07108,-7.07107 c 8.53427,-8.53427 20.95756,-9.85207 27.85491,-2.95473 6.89734,6.89735 5.57954,19.32064 -2.95473,27.85491 l -14.14215,14.14215 c -3.31574,3.31573 -7.21852,5.54216 -11.15618,6.6207 -0.10182,0.0279 -0.20366,0.055 -0.30552,0.0814 -6.09777,1.57764 -12.24492,0.40095 -16.39321,-3.74734"
         style="fill:none;stroke:#000000;stroke-width:10;stroke-linecap:round;stroke-linejoin:round;stroke-miterlimit:4;stroke-opacity:1;stroke-dasharray:none" />
    </g>
    <path
       style="fill:none;stroke:#000000;stroke-width:10;stroke-linecap:round;stroke-linejoin:round;stroke-miterlimit:4;stroke-opacity:1"
       d="m 314.28571,711.29073 0,-40.00002 c 0,-14.83928 13.69857,-26.78571 30.71428,-26.78571 17.01571,0 30.71429,11.94643 30.71429,26.78571 l 0,40.00002 c 0,14.83928 -13.69858,26.78571 -30.71429,26.78571 -4.25393,0 -8.30053,-0.74665 -11.97761,-2.09849 -1.83854,-0.67592 -3.58469,-1.50314 -5.21819,-2.46398"
       id="rect3919"
       inkscape:connector-curvature="0"
       sodipodi:nodetypes="cssssssc" />
  </g>
</svg>
