<?xml version="1.0" encoding="UTF-8" standalone="no"?>
<!-- Created with Inkscape (http://www.inkscape.org/) -->

<svg
   xmlns:dc="http://purl.org/dc/elements/1.1/"
   xmlns:cc="http://creativecommons.org/ns#"
   xmlns:rdf="http://www.w3.org/1999/02/22-rdf-syntax-ns#"
   xmlns:svg="http://www.w3.org/2000/svg"
   xmlns="http://www.w3.org/2000/svg"
   xmlns:sodipodi="http://sodipodi.sourceforge.net/DTD/sodipodi-0.dtd"
   xmlns:inkscape="http://www.inkscape.org/namespaces/inkscape"
   width="744.09448819"
   height="1052.3622047"
   id="svg2"
   version="1.1"
   inkscape:version="0.48.2 r9819"
   sodipodi:docname="layouticons.svg">
  <defs
     id="defs4" />
  <sodipodi:namedview
     id="base"
     pagecolor="#ffffff"
     bordercolor="#666666"
     borderopacity="1.0"
     inkscape:pageopacity="0.0"
     inkscape:pageshadow="2"
     inkscape:zoom="0.98994949"
     inkscape:cx="342.65162"
     inkscape:cy="352.08407"
     inkscape:document-units="px"
     inkscape:current-layer="layer1"
     showgrid="false"
     inkscape:window-width="1436"
     inkscape:window-height="856"
     inkscape:window-x="4"
     inkscape:window-y="0"
     inkscape:window-maximized="1" />
  <metadata
     id="metadata7">
    <rdf:RDF>
      <cc:Work
         rdf:about="">
        <dc:format>image/svg+xml</dc:format>
        <dc:type
           rdf:resource="http://purl.org/dc/dcmitype/StillImage" />
        <dc:title></dc:title>
      </cc:Work>
    </rdf:RDF>
  </metadata>
  <g
     inkscape:label="Layer 1"
     inkscape:groupmode="layer"
     id="layer1">
    <rect
       style="fill:#438eb9;fill-opacity:1;stroke:#438eb9;stroke-width:20;stroke-linecap:round;stroke-linejoin:round;stroke-miterlimit:4;stroke-opacity:1;stroke-dasharray:none"
       id="rect3810"
       width="124.75384"
       height="141.92644"
       x="983.88861"
       y="393.74274"
       rx="24.107143"
       ry="21.785706" />
    <rect
       style="fill:#ffffff;fill-opacity:1;stroke:#438eb9;stroke-width:21.65020561;stroke-linecap:round;stroke-linejoin:round;stroke-miterlimit:4;stroke-opacity:1;stroke-dasharray:none"
       id="rect3812"
       width="105.93105"
       height="124.61886"
       x="991.27966"
       y="403.15408"
       rx="26.333633"
       ry="23.37064" />
    <text
       xml:space="preserve"
       style="font-size:10px;font-style:normal;font-weight:normal;line-height:125%;letter-spacing:0px;word-spacing:0px;fill:#000000;fill-opacity:1;stroke:none;font-family:robota;-inkscape-font-specification:robota"
       x="1045.5079"
       y="448.79599"
       id="text3814"
       sodipodi:linespacing="125%"><tspan
         sodipodi:role="line"
         id="tspan3816"
         x="1045.5079"
         y="448.79599">baifj</tspan></text>
    <text
       sodipodi:linespacing="125%"
       id="text3830"
       y="437.17929"
       x="1046.5181"
       style="font-size:10px;font-style:normal;font-weight:normal;line-height:125%;letter-spacing:0px;word-spacing:0px;fill:#000000;fill-opacity:1;stroke:none;font-family:robota;-inkscape-font-specification:robota"
       xml:space="preserve"><tspan
         y="437.17929"
         x="1046.5181"
         id="tspan3832"
         sodipodi:role="line">badsifj</tspan></text>
    <text
       xml:space="preserve"
       style="font-size:10px;font-style:normal;font-weight:normal;line-height:125%;letter-spacing:0px;word-spacing:0px;fill:#000000;fill-opacity:1;stroke:none;font-family:robota;-inkscape-font-specification:robota"
       x="1012.1729"
       y="448.79599"
       id="text3834"
       sodipodi:linespacing="125%"><tspan
         sodipodi:role="line"
         id="tspan3836"
         x="1012.1729"
         y="448.79599">badsifj</tspan></text>
    <text
       sodipodi:linespacing="125%"
       id="text3838"
       y="436.67416"
       x="1011.1627"
       style="font-size:10px;font-style:normal;font-weight:normal;line-height:125%;letter-spacing:0px;word-spacing:0px;fill:#000000;fill-opacity:1;stroke:none;font-family:robota;-inkscape-font-specification:robota"
       xml:space="preserve"><tspan
         y="436.67416"
         x="1011.1627"
         id="tspan3840"
         sodipodi:role="line">badsifj</tspan></text>
    <text
       sodipodi:linespacing="125%"
       id="text3842"
       y="476.57516"
       x="1013.183"
       style="font-size:10px;font-style:normal;font-weight:normal;line-height:125%;letter-spacing:0px;word-spacing:0px;fill:#000000;fill-opacity:1;stroke:none;font-family:robota;-inkscape-font-specification:robota"
       xml:space="preserve"><tspan
         y="476.57516"
         x="1013.183"
         id="tspan3844"
         sodipodi:role="line">badsifj</tspan></text>
    <text
       xml:space="preserve"
       style="font-size:10px;font-style:normal;font-weight:normal;line-height:125%;letter-spacing:0px;word-spacing:0px;fill:#000000;fill-opacity:1;stroke:none;font-family:robota;-inkscape-font-specification:robota"
       x="1046.5181"
       y="475.56503"
       id="text3846"
       sodipodi:linespacing="125%"><tspan
         sodipodi:role="line"
         id="tspan3848"
         x="1046.5181"
         y="475.56503">badsifj</tspan></text>
    <text
       sodipodi:linespacing="125%"
       id="text3850"
       y="462.43307"
       x="1012.6779"
       style="font-size:10px;font-style:normal;font-weight:normal;line-height:125%;letter-spacing:0px;word-spacing:0px;fill:#438eb9;fill-opacity:1;stroke:none;font-family:robota;-inkscape-font-specification:robota"
       xml:space="preserve"><tspan
         y="462.43307"
         x="1012.6779"
         id="tspan3852"
         sodipodi:role="line">badsifj</tspan></text>
    <text
       sodipodi:linespacing="125%"
       id="text3854"
       y="492.23257"
       x="1046.5181"
       style="font-size:10px;font-style:normal;font-weight:normal;line-height:125%;letter-spacing:0px;word-spacing:0px;fill:#000000;fill-opacity:1;stroke:none;font-family:robota;-inkscape-font-specification:robota"
       xml:space="preserve"><tspan
         y="492.23257"
         x="1046.5181"
         id="tspan3856"
         sodipodi:role="line">badsifj</tspan></text>
    <text
       xml:space="preserve"
       style="font-size:10px;font-style:normal;font-weight:normal;line-height:125%;letter-spacing:0px;word-spacing:0px;fill:#000000;fill-opacity:1;stroke:none;font-family:robota;-inkscape-font-specification:robota"
       x="1011.6678"
       y="491.72745"
       id="text3858"
       sodipodi:linespacing="125%"><tspan
         sodipodi:role="line"
         id="tspan3860"
         x="1011.6678"
         y="491.72745">badsifj</tspan></text>
    <g
       id="g3876"
       style="stroke:#069c50;stroke-opacity:1"
       transform="translate(920.24897,-112.12693)">
      <path
         style="fill:none;stroke:#069c50;stroke-width:1.34971654;stroke-linecap:round;stroke-linejoin:round;stroke-miterlimit:4;stroke-opacity:1;stroke-dasharray:none"
         d="m 132.78209,574.45025 -1.04673,0.8702 c -1.26332,1.05027 -3.10234,1.21245 -4.12336,0.36363 -1.02101,-0.84883 -0.82594,-2.37771 0.43739,-3.42798 l 2.09346,-1.74041 c 0.49083,-0.40804 1.06855,-0.68204 1.65145,-0.81478 0.0151,-0.003 0.0302,-0.007 0.0452,-0.01 0.90265,-0.19415 1.81261,-0.0493 2.42669,0.46117"
         id="path3866"
         inkscape:connector-curvature="0"
         sodipodi:nodetypes="cssssssc"
         inkscape:export-filename="/Users/elise/Documents/ReadMore/readmore/main/static/img/layout/link.png"
         inkscape:export-xdpi="19.870001"
         inkscape:export-ydpi="19.870001" />
      <path
         inkscape:export-ydpi="19.870001"
         inkscape:export-xdpi="19.870001"
         inkscape:export-filename="/Users/elise/Documents/ReadMore/readmore/main/static/img/layout/link.png"
         sodipodi:nodetypes="cssssssc"
         inkscape:connector-curvature="0"
         id="path3868"
         d="m 133.32042,568.09156 1.04673,-0.87021 c 1.26333,-1.05027 3.10235,-1.21244 4.12336,-0.36362 1.02102,0.84882 0.82594,2.3777 -0.43739,3.42797 l -2.09346,1.74041 c -0.49082,0.40805 -1.06856,0.68205 -1.65144,0.81478 -0.0151,0.003 -0.0302,0.007 -0.0452,0.01 -0.90265,0.19416 -1.81262,0.0493 -2.42669,-0.46116"
         style="fill:none;stroke:#069c50;stroke-width:1.34971654;stroke-linecap:round;stroke-linejoin:round;stroke-miterlimit:4;stroke-opacity:1;stroke-dasharray:none" />
    </g>
    <text
       sodipodi:linespacing="125%"
       id="text3870"
       y="460.91782"
       x="1060.1552"
       style="font-size:10px;font-style:normal;font-weight:normal;line-height:125%;letter-spacing:0px;word-spacing:0px;fill:#000000;fill-opacity:1;stroke:none;font-family:robota;-inkscape-font-specification:robota"
       xml:space="preserve"><tspan
         y="460.91782"
         x="1060.1552"
         id="tspan3872"
         sodipodi:role="line">baifj</tspan></text>
    <rect
       style="fill:none;stroke:#069c50;stroke-width:0.61421108;stroke-linecap:round;stroke-linejoin:round;stroke-miterlimit:4;stroke-opacity:1;stroke-dasharray:none"
       id="rect3874"
       width="36.751282"
       height="14.022848"
       x="1010.4647"
       y="451.63364"
       rx="0"
       ry="0" />
    <path
       style="fill:#438eb9;fill-opacity:1;stroke:none"
       d="m 848.84548,248.4303 101.78571,0 c 13.35536,0 24.10715,9.71643 24.10715,21.78571 l 0,106.42859 c 0,12.06928 -10.75179,21.7857 -24.10715,21.7857 l -101.78571,0 c -13.35536,0 -24.10714,-9.71642 -24.10714,-21.7857 l 0,-106.42859 c 0,-12.06928 10.75178,-21.78571 24.10714,-21.78571 z"
       id="rect3880"
       inkscape:export-filename="/Users/elise/Documents/ReadMore/readmore/main/static/img/layout/link.png"
       inkscape:export-xdpi="18"
       inkscape:export-ydpi="18"
       inkscape:connector-curvature="0" />
    <path
       style="fill:none;stroke:#5f5f5f;stroke-width:10;stroke-linecap:round;stroke-linejoin:round;stroke-miterlimit:4;stroke-opacity:1;stroke-dasharray:none"
       d="m 1289.8592,372.49843 -7.0711,7.07107 c -8.5342,8.53427 -20.9575,9.85207 -27.8549,2.95473 -6.8973,-6.89735 -5.5795,-19.32064 2.9548,-27.85491 l 14.1421,-14.14215 c 3.3157,-3.31573 7.2185,-5.54216 11.1562,-6.6207 0.1018,-0.0279 0.2036,-0.055 0.3055,-0.0814 6.0978,-1.57764 12.2449,-0.40095 16.3932,3.74734"
       id="rect3774"
       inkscape:connector-curvature="0"
       sodipodi:nodetypes="cssssssc"
       inkscape:export-filename="/Users/elise/Documents/ReadMore/readmore/main/static/img/layout/link_nobg.png"
       inkscape:export-xdpi="14.905526"
       inkscape:export-ydpi="14.905526" />
    <path
       inkscape:export-ydpi="14.905526"
       inkscape:export-xdpi="14.905526"
       inkscape:export-filename="/Users/elise/Documents/ReadMore/readmore/main/static/img/layout/link_nobg.png"
       sodipodi:nodetypes="cssssssc"
       inkscape:connector-curvature="0"
       id="path3806"
       d="m 1293.4958,320.8292 7.0711,-7.07107 c 8.5343,-8.53427 20.9576,-9.85207 27.8549,-2.95473 6.8974,6.89735 5.5796,19.32064 -2.9547,27.85491 l -14.1421,14.14215 c -3.3158,3.31573 -7.2186,5.54216 -11.1562,6.6207 -0.1018,0.0279 -0.2037,0.055 -0.3055,0.0814 -6.0978,1.57764 -12.245,0.40095 -16.3933,-3.74734"
       style="fill:none;stroke:#5f5f5f;stroke-width:10;stroke-linecap:round;stroke-linejoin:round;stroke-miterlimit:4;stroke-opacity:1;stroke-dasharray:none" />
    <g
       transform="translate(678.36735,-192.22041)"
       id="g3886"
       style="stroke:#000000;stroke-opacity:1">
      <path
         style="fill:none;stroke:#000000;stroke-width:10;stroke-linecap:round;stroke-linejoin:round;stroke-miterlimit:4;stroke-opacity:1;stroke-dasharray:none"
         d="m 372.20615,482.57598 -7.07108,7.07107 c -8.53427,8.53427 -20.95756,9.85207 -27.85491,2.95473 -6.89734,-6.89735 -5.57954,-19.32064 2.95473,-27.85491 l 14.14215,-14.14215 c 3.31574,-3.31573 7.21852,-5.54216 11.15618,-6.6207 0.10182,-0.0279 0.20366,-0.055 0.30552,-0.0814 6.09777,-1.57764 12.24492,-0.40095 16.39321,3.74734"
         id="path3888"
         inkscape:connector-curvature="0"
         sodipodi:nodetypes="cssssssc"
         inkscape:export-filename="/Users/elise/Documents/ReadMore/readmore/main/static/img/layout/link.png"
         inkscape:export-xdpi="14.9"
         inkscape:export-ydpi="14.9" />
      <path
         inkscape:export-ydpi="14.9"
         inkscape:export-xdpi="14.9"
         inkscape:export-filename="/Users/elise/Documents/ReadMore/readmore/main/static/img/layout/link.png"
         sodipodi:nodetypes="cssssssc"
         inkscape:connector-curvature="0"
         id="path3890"
         d="m 375.84278,430.90675 7.07108,-7.07107 c 8.53427,-8.53427 20.95756,-9.85207 27.85491,-2.95473 6.89734,6.89735 5.57954,19.32064 -2.95473,27.85491 l -14.14215,14.14215 c -3.31574,3.31573 -7.21852,5.54216 -11.15618,6.6207 -0.10182,0.0279 -0.20366,0.055 -0.30552,0.0814 -6.09777,1.57764 -12.24492,0.40095 -16.39321,-3.74734"
         style="fill:none;stroke:#000000;stroke-width:10;stroke-linecap:round;stroke-linejoin:round;stroke-miterlimit:4;stroke-opacity:1;stroke-dasharray:none" />
    </g>
    <path
       style="fill:none;stroke:#5f5f5f;stroke-width:5;stroke-linecap:round;stroke-linejoin:round;stroke-miterlimit:4;stroke-opacity:1"
       d="m 230.31478,529.10315 96.97464,-1.01015 c 15.10905,-0.15739 25.27714,12.2968 27.27412,27.27412 l 16.16244,121.2183 c 1.99698,14.97732 -12.16425,27.27412 -27.27412,27.27412 l -113.13708,0 c -15.10986,0 -27.27412,-12.16425 -27.27412,-27.27412 l 0,-120.20815 c 0,-15.10986 12.16508,-27.11673 27.27412,-27.27412 z"
       id="rect7101"
       inkscape:connector-curvature="0"
       sodipodi:nodetypes="sssssssss" />
  </g>
</svg>
